<svg xmlns="http://www.w3.org/2000/svg" xmlns:xlink="http://www.w3.org/1999/xlink" width="58.5" height="49.5" viewBox="0 0 58.5 49.5">
  <defs>
    <filter id="Icon_awesome-shopping-basket" x="0" y="0" width="58.5" height="49.5" filterUnits="userSpaceOnUse">
      <feOffset input="SourceAlpha"/>
      <feGaussianBlur stdDeviation="3" result="blur"/>
      <feFlood flood-color="#16a728" flood-opacity="0.722"/>
      <feComposite operator="in" in2="blur"/>
      <feComposite in="SourceGraphic"/>
    </filter>
  </defs>
  <g transform="matrix(1, 0, 0, 1, 0, 0)" filter="url(#Icon_awesome-shopping-basket)">
    <path id="Icon_awesome-shopping-basket-2" data-name="Icon awesome-shopping-basket" d="M40.5,15.188v1.125A1.687,1.687,0,0,1,38.813,18H38.25L36.414,30.852a3.375,3.375,0,0,1-3.341,2.9H7.427a3.375,3.375,0,0,1-3.341-2.9L2.25,18H1.688A1.687,1.687,0,0,1,0,16.313V15.188A1.687,1.687,0,0,1,1.688,13.5H6.422L13.93,3.177A2.25,2.25,0,1,1,17.57,5.823L11.987,13.5H28.513L22.93,5.823A2.25,2.25,0,0,1,26.57,3.177L34.078,13.5h4.735A1.687,1.687,0,0,1,40.5,15.188ZM21.938,27.563V19.688a1.688,1.688,0,0,0-3.375,0v7.875a1.688,1.688,0,0,0,3.375,0Zm7.875,0V19.688a1.688,1.688,0,0,0-3.375,0v7.875a1.688,1.688,0,0,0,3.375,0Zm-15.75,0V19.688a1.688,1.688,0,0,0-3.375,0v7.875a1.688,1.688,0,0,0,3.375,0Z" transform="translate(9 6.75)" fill="#fff"/>
  </g>
</svg>
